<svg width="24" height="24" viewBox="0 0 24 24" fill="none" xmlns="http://www.w3.org/2000/svg">
<path d="M7.76191 19.9416L3.00001 21L4.05841 16.2381C3.36139 14.9343 2.99778 13.4784 3.00001 12C3.00001 7.0293 7.02931 3 12 3C16.9707 3 21 7.0293 21 12C21 16.9707 16.9707 21 12 21C10.5216 21.0022 9.06567 20.6386 7.76191 19.9416ZM8.02291 18.0399L8.61061 18.3549C9.65331 18.9121 10.8178 19.2025 12 19.2C13.424 19.2 14.8161 18.7777 16.0001 17.9866C17.1841 17.1954 18.107 16.0709 18.6519 14.7553C19.1969 13.4397 19.3395 11.992 19.0617 10.5953C18.7839 9.19869 18.0981 7.91577 17.0912 6.90883C16.0842 5.90189 14.8013 5.21616 13.4047 4.93835C12.008 4.66053 10.5603 4.80312 9.24469 5.34807C7.92906 5.89302 6.80457 6.81586 6.01343 7.99989C5.22228 9.18393 4.80001 10.576 4.80001 12C4.80001 13.2006 5.09251 14.3562 5.64601 15.3894L5.96011 15.9771L5.37061 18.6294L8.02291 18.0399ZM7.50001 12H9.30001C9.30001 12.7161 9.58447 13.4028 10.0908 13.9092C10.5972 14.4155 11.2839 14.7 12 14.7C12.7161 14.7 13.4029 14.4155 13.9092 13.9092C14.4155 13.4028 14.7 12.7161 14.7 12H16.5C16.5 13.1935 16.0259 14.3381 15.182 15.182C14.3381 16.0259 13.1935 16.5 12 16.5C10.8065 16.5 9.66194 16.0259 8.81803 15.182C7.97412 14.3381 7.50001 13.1935 7.50001 12Z" fill="currentColor"/>
</svg>
