<svg width="16" height="16" viewBox="0 0 16 16" fill="none" xmlns="http://www.w3.org/2000/svg">
<path d="M12.8 13.9999H3.19995V12.7999C3.19995 12.0043 3.51602 11.2412 4.07863 10.6786C4.64124 10.116 5.4043 9.7999 6.19995 9.7999H9.79995C10.5956 9.7999 11.3587 10.116 11.9213 10.6786C12.4839 11.2412 12.8 12.0043 12.8 12.7999V13.9999ZM7.99995 8.5999C7.52719 8.5999 7.05906 8.50678 6.62229 8.32587C6.18552 8.14495 5.78866 7.87978 5.45437 7.54549C5.12008 7.2112 4.8549 6.81433 4.67398 6.37756C4.49307 5.94079 4.39995 5.47266 4.39995 4.9999C4.39995 4.52714 4.49307 4.05901 4.67398 3.62224C4.8549 3.18547 5.12008 2.78861 5.45437 2.45432C5.78866 2.12003 6.18552 1.85485 6.62229 1.67394C7.05906 1.49302 7.52719 1.3999 7.99995 1.3999C8.95473 1.3999 9.8704 1.77919 10.5455 2.45432C11.2207 3.12945 11.6 4.04512 11.6 4.9999C11.6 5.95468 11.2207 6.87036 10.5455 7.54549C9.8704 8.22062 8.95473 8.5999 7.99995 8.5999Z" fill="#213B35"/>
</svg>
